<?xml version="1.0" encoding="utf-8"?>
<!-- Generator: Adobe Illustrator 21.1.0, SVG Export Plug-In . SVG Version: 6.00 Build 0)  -->
<svg version="1.1" id="Layer_1" xmlns="http://www.w3.org/2000/svg" xmlns:xlink="http://www.w3.org/1999/xlink" x="0px" y="0px"
	 viewBox="0 0 50 50" style="enable-background:new 0 0 50 50;" xml:space="preserve">
<style type="text/css">
	.st0{fill:#668B66;}
	.st1{opacity:0.1;fill:#231F20;}
	.st2{fill:#99999A;}
	.st3{fill:#D6D5D5;}
	.st4{fill:#FFFFFF;}
</style>
<g>
	<g>
		<path class="st0" d="M20.1,10.3c7.8,0,14.1,5.8,14.1,13.2s-6.5,13.4-14.5,13.3c-7.4-0.2-13.7-5.9-13.7-13.2S12.3,10.3,20.1,10.3z
			 M18,12.1c-0.1,0-0.1,0-0.2,0.1c-0.8,0.6-1.5,1.2-2.1,2c-0.2,0.2-0.5,0.3-0.4,0.5c0.1,0.2,0.4,0.2,0.6,0.2c0.2,0,0.2,0.1,0.3-0.1
			C16.8,13.7,17.4,12.9,18,12.1C18,12.1,18,12.1,18,12.1C18,12.1,18,12.1,18,12.1z M22,11.6c-0.1-0.1-0.1-0.2-0.2-0.1
			C21.9,11.5,21.9,11.6,22,11.6c0.7,0.8,1.4,1.5,2,2.3c0.4,0.4,0.4,0.4,0.9,0.2c0.1,0,0.1-0.1,0.2-0.1c0.2-0.1,0.2-0.2,0-0.3
			c-0.3-0.2-0.6-0.5-0.9-0.7C23.6,12.5,22.9,11.9,22,11.6z M18.3,10.9c-0.7,0.2-1.2,0.6-1.8,0.9c-1.1,0.5-2,1.2-2.9,1.9
			c-0.2,0.2-0.2,0.2,0,0.3c0.2,0.1,0.5,0.2,0.8,0.3c0.2,0.1,0.3,0,0.5-0.2c0.4-0.5,0.8-0.9,1.3-1.4C16.8,12.2,17.7,11.6,18.3,10.9
			C18.4,10.9,18.4,10.9,18.3,10.9C18.4,10.9,18.4,10.9,18.3,10.9z M19.4,23.1c-0.5,0-0.9,0-1.3,0c-0.2,0-0.2,0.1-0.2,0.2
			c0,0.2,0,0.5,0,0.7c0,1,0.2,1.9,0.2,2.9c0,0.2,0.1,0.2,0.3,0.2c0.6,0,1.1,0,1.7,0c0.6,0,1.2-0.1,1.7-0.2c0.2,0,0.2-0.1,0.2-0.2
			c-0.2-1.1-0.2-2.3-0.3-3.4c0-0.2-0.1-0.2-0.3-0.2C20.8,23,20.1,23,19.4,23.1z M22.3,30.1L22.3,30.1c0-0.8-0.1-1.7-0.2-2.5
			c0-0.2-0.1-0.2-0.2-0.2c-0.1,0-0.2,0-0.3,0c-0.9,0.1-1.8,0.2-2.7,0.2c-0.7,0-0.8,0-0.6,0.6c0.2,1,0.3,2,0.5,3
			c0,0.2,0.1,0.2,0.2,0.2c1.1,0,2.1-0.1,3.2-0.2c0.2,0,0.2-0.1,0.2-0.3C22.3,30.7,22.3,30.4,22.3,30.1z M17.9,31.5
			c0.2,0,0.4,0,0.3-0.2c-0.2-1.1-0.4-2.3-0.5-3.5c0-0.2-0.1-0.2-0.2-0.2c-1.1-0.1-2.2-0.2-3.2-0.5C14,27,14,27.1,14,27.3
			c0.2,1.1,0.3,2.3,0.6,3.4c0,0.2,0.1,0.2,0.2,0.2C15.8,31.2,16.9,31.3,17.9,31.5z M17.2,27c0.2,0,0.4,0.1,0.3-0.2
			c-0.2-1.1-0.2-2.3-0.2-3.5c0-0.2,0-0.2-0.2-0.2c-0.9-0.1-1.8-0.2-2.7-0.3C14.1,22.7,14,22.8,14,23c-0.1,1.1-0.2,2.1-0.1,3.2
			c0,0.2,0.1,0.2,0.2,0.2C15.2,26.7,16.2,26.9,17.2,27z M26.3,25.8c-0.2-1.1-0.3-2.1-0.5-3.2c-0.1-0.2-0.2-0.3-0.4-0.2
			c-0.9,0.2-1.7,0.4-2.6,0.5c-0.3,0-0.4,0.2-0.4,0.5c0.2,1.1,0.2,2.2,0.3,3.2c0,0.2,0.1,0.2,0.2,0.2c1.1-0.2,2.1-0.5,3.2-0.8
			C26.3,25.9,26.3,25.8,26.3,25.8z M26.3,26.8c0-0.2,0-0.2-0.2-0.2c-0.9,0.3-1.7,0.5-2.6,0.6c-0.6,0.1-0.6,0.2-0.6,0.8
			c0,0.1,0,0.2,0,0.2c0.1,0.9,0.1,1.8,0.2,2.7c0,0.2,0.1,0.2,0.3,0.2c1-0.2,2-0.5,2.9-0.9c0.2-0.1,0.2-0.2,0.2-0.3
			C26.3,29.4,26.3,27.3,26.3,26.8z M19.3,22.6c0.7,0,1.4-0.1,2.1-0.1c0.2,0,0.3-0.1,0.2-0.3c-0.1-0.8-0.2-1.7-0.3-2.5
			c0-0.2-0.1-0.2-0.3-0.2c-1,0.1-2,0.2-2.9,0.1c-0.2,0-0.2,0-0.2,0.2c0,0.9-0.1,1.8-0.1,2.7c0,0.2,0.1,0.2,0.3,0.2
			C18.5,22.5,18.9,22.6,19.3,22.6z M30,27.6c0-0.8-0.2-1.4-0.2-2.1c-0.1-0.4-0.1-0.4-0.4-0.2c-0.7,0.4-1.4,0.7-2.1,0.9
			c-0.5,0.2-0.5,0.2-0.4,0.6c0.1,0.9,0.1,1.9,0,2.8c0,0.1-0.1,0.2,0,0.2s0.2,0,0.2-0.1c0.9-0.5,1.7-0.9,2.5-1.5
			C30,28.1,30.1,27.9,30,27.6z M19.6,15.5L19.6,15.5c-0.3,0-0.6,0.1-0.9,0c-0.2,0-0.2,0-0.2,0.2c-0.2,0.9-0.3,1.7-0.4,2.6
			c-0.1,0.6-0.1,0.6,0.6,0.6c0.8,0,1.6,0,2.3-0.1c0.2,0,0.4-0.1,0.3-0.3s-0.1-0.4-0.1-0.6c-0.2-0.8-0.2-1.5-0.4-2.3
			c0-0.2-0.1-0.2-0.2-0.2C20.2,15.5,19.9,15.5,19.6,15.5z M10.8,26.3c0.1,1.1,0.2,2.1,0.5,3.1c0,0.2,0.1,0.2,0.2,0.3
			c0.8,0.4,1.5,0.7,2.3,1c0.2,0.1,0.2,0,0.2-0.2c-0.3-1.1-0.5-2.2-0.5-3.3c0-0.2-0.1-0.2-0.2-0.3c-0.8-0.2-1.4-0.5-2.1-0.7
			C10.9,26.1,10.7,26.1,10.8,26.3z M22,19.6c0.1,0.9,0.2,1.8,0.3,2.6c0,0.2,0.1,0.2,0.2,0.2c0.9-0.2,1.9-0.3,2.8-0.5
			c0.2-0.1,0.2-0.2,0.2-0.3c-0.2-0.8-0.5-1.7-0.8-2.4c-0.1-0.2-0.2-0.2-0.4-0.2c-0.8,0.2-1.4,0.3-2.2,0.4C22,19.3,21.9,19.4,22,19.6
			z M17.4,19.9c0-0.5,0-0.5-0.5-0.5c-0.6-0.1-1.2-0.2-1.8-0.2c-0.2-0.1-0.2,0-0.3,0.2c-0.2,0.8-0.5,1.7-0.6,2.6
			c-0.1,0.3,0,0.4,0.3,0.4c0.8,0.1,1.7,0.2,2.6,0.3c0.2,0,0.3,0,0.3-0.2C17.3,21.5,17.3,20.7,17.4,19.9z M26.3,22.3L26.3,22.3
			c0.2,1.1,0.5,2.2,0.6,3.2c0,0.2,0.2,0.1,0.2,0.1c0.8-0.3,1.6-0.7,2.4-1.1c0.2-0.1,0.2-0.2,0.2-0.2c-0.2-0.9-0.5-1.8-0.9-2.6
			c-0.1-0.2-0.2-0.2-0.3-0.2c-0.6,0.2-1.3,0.5-1.9,0.6C26.3,22.1,26.2,22.1,26.3,22.3z M10.8,24.8c0,0.1,0,0.2,0,0.2
			c-0.1,0.3,0.1,0.5,0.4,0.6c0.6,0.2,1.2,0.5,1.8,0.6c0.4,0.1,0.4,0.1,0.4-0.3c-0.1-1,0-2,0.1-3c0-0.2,0-0.3-0.2-0.3
			c-0.6-0.2-1.2-0.2-1.8-0.5c-0.2-0.1-0.3,0-0.3,0.2C10.9,23.1,10.8,23.9,10.8,24.8z M7.7,23.3c0,0.2,0.1,0.2,0.1,0.2
			c0.7,0.5,1.4,1.1,2.3,1.4c0.2,0.1,0.2,0.1,0.2-0.2c0-1,0.2-2,0.4-2.9c0-0.1,0-0.2-0.1-0.2c-0.8-0.3-1.4-0.5-2.1-0.9
			c-0.1-0.1-0.2,0-0.2,0.1C7.9,21.7,7.8,22.5,7.7,23.3z M10.3,17.2c-0.1,0-0.2,0.1-0.2,0.2c-0.6,0.8-1.1,1.7-1.5,2.7
			c-0.1,0.2-0.1,0.2,0.1,0.3c0.6,0.3,1.3,0.6,2,0.8c0.2,0.1,0.2,0,0.3-0.2c0.3-0.9,0.6-1.8,1.1-2.7c0.1-0.2,0.1-0.2-0.2-0.3
			C11.2,17.8,10.8,17.6,10.3,17.2C10.3,17.3,10.3,17.3,10.3,17.2z M7.6,24.2c0,0.9,0,1.7,0.1,2.5c0,0.2,0.1,0.3,0.2,0.5
			c0.5,0.5,1,0.9,1.5,1.3c0.4,0.2,0.7,0.5,1.1,0.7c0.1-0.2,0-0.2,0-0.3c-0.2-0.8-0.3-1.6-0.3-2.3c0-0.5-0.2-0.9-0.8-1.1
			c-0.1,0-0.1-0.1-0.2-0.1C8.7,25.1,8.2,24.6,7.6,24.2z M22.4,33L22.4,33c0-0.3,0-0.6,0-0.8c0-0.2-0.1-0.3-0.3-0.2
			c-1,0.2-2,0.2-2.9,0.2c-0.2,0-0.2,0.1-0.2,0.2c0.2,0.6,0.2,1.2,0.4,1.7c0,0.2,0.1,0.2,0.3,0.2c0.9,0,1.7-0.1,2.6-0.2
			c0.2,0,0.2-0.1,0.2-0.3C22.4,33.5,22.4,33.3,22.4,33z M18.2,34.3c0.6,0,0.6,0,0.5-0.5c-0.1-0.5-0.2-1-0.3-1.4
			c0-0.3-0.2-0.4-0.5-0.4c-1-0.1-1.9-0.2-2.8-0.4c-0.3-0.1-0.3,0-0.2,0.2c0.2,0.7,0.5,1.3,0.7,1.9c0.1,0.2,0.2,0.2,0.3,0.2
			C16.7,34.1,17.5,34.3,18.2,34.3z M22,18.8c0.8-0.1,1.5-0.2,2.3-0.4c0.2,0,0.1-0.1,0.1-0.2c-0.5-1-0.8-2-1.4-2.9
			c-0.1-0.2-0.2-0.2-0.2-0.1c-0.4,0.1-0.8,0.2-1.1,0.2c-0.2,0-0.2,0.1-0.2,0.2C21.6,16.7,21.7,17.7,22,18.8
			C21.8,18.7,21.9,18.8,22,18.8z M13.4,22.1c0.2,0,0.2-0.1,0.2-0.2c0.2-0.9,0.4-1.9,0.7-2.8c0-0.2,0-0.2-0.2-0.2
			c-0.5-0.2-1-0.2-1.4-0.5c-0.2-0.1-0.2,0-0.3,0.1c-0.5,0.9-0.8,1.8-1.1,2.7c0,0.1-0.1,0.2,0.1,0.2C12.1,21.7,12.7,21.9,13.4,22.1z
			 M23,32.9L23,32.9c0,0.3,0,0.6,0,0.9c0,0.2,0,0.2,0.2,0.2c0.8-0.2,1.7-0.5,2.5-0.8c0.1-0.1,0.2-0.1,0.2-0.2
			c0.2-0.6,0.2-1.3,0.3-1.9c0-0.2-0.1-0.2-0.2-0.2c-0.9,0.3-1.8,0.6-2.8,0.8c-0.2,0-0.2,0.1-0.2,0.2C23,32.2,23,32.6,23,32.9z
			 M30,28.9c-0.1,0-0.2,0-0.2,0c-0.9,0.6-1.8,1.2-2.9,1.6c-0.2,0.1-0.2,0.2-0.2,0.3c-0.1,0.6-0.2,1.1-0.2,1.7c0,0.1-0.1,0.2,0,0.2
			c0.1,0.1,0.2,0,0.3-0.1c1-0.5,1.9-1,2.8-1.7c0.1-0.1,0.2-0.1,0.2-0.2C30,30.2,30,29.5,30,28.9z M17.1,18.9c0.2,0,0.4,0.2,0.4-0.2
			c0.1-1.1,0.2-2,0.5-3c0-0.2,0-0.2-0.2-0.2c-0.4,0-0.7-0.1-1.1-0.1c-0.2,0-0.2,0-0.2,0.2c-0.5,0.9-1,1.9-1.3,2.9
			c-0.1,0.2,0,0.2,0.2,0.3C15.8,18.7,16.5,18.8,17.1,18.9z M31.9,22.7L31.9,22.7c-0.2-0.8-0.5-1.5-0.9-2.3c-0.1-0.2-0.2-0.2-0.2-0.1
			c-0.5,0.3-1.1,0.5-1.6,0.8c-0.2,0.1-0.2,0.2-0.2,0.3c0.4,0.8,0.7,1.7,0.9,2.5C30,24,30,24.1,30.3,24c0.5-0.4,1.1-0.8,1.5-1.1
			C31.9,22.8,31.9,22.7,31.9,22.7z M28.2,20.9c0-0.1,0-0.1-0.1-0.2c-0.4-0.8-0.8-1.7-1.4-2.4c-0.1-0.2-0.2-0.2-0.3-0.1
			c-0.4,0.2-0.8,0.3-1.2,0.4c-0.2,0.1-0.2,0.2-0.2,0.2c0.3,0.8,0.6,1.7,0.8,2.6c0,0.2,0.1,0.2,0.3,0.2c0.6-0.2,1.2-0.4,1.8-0.6
			C28.2,21,28.2,21,28.2,20.9z M30.7,19.8C30.7,19.7,30.7,19.7,30.7,19.8c-0.5-0.9-1.1-1.7-1.7-2.5c-0.1-0.1-0.2-0.1-0.2,0
			c-0.4,0.2-0.8,0.5-1.2,0.6c-0.2,0.1-0.2,0.1-0.1,0.2c0.5,0.8,1,1.6,1.4,2.5c0.1,0.2,0.2,0.2,0.2,0.1c0.5-0.2,1.1-0.5,1.6-0.8
			C30.6,19.9,30.7,19.9,30.7,19.8z M11.6,32.6c0-0.2,0-0.2-0.1-0.3c-0.2-0.6-0.5-1.3-0.6-1.9c-0.1-0.2-0.2-0.3-0.3-0.4
			c-0.8-0.5-1.7-1-2.3-1.7c-0.1-0.1-0.2-0.2-0.3-0.2c0.2,0.8,0.4,1.6,0.7,2.3c0.1,0.1,0.2,0.2,0.2,0.3C9.7,31.4,10.6,32,11.6,32.6z
			 M14.2,14.9c0-0.1-0.1-0.1-0.2-0.2c-0.3-0.2-0.7-0.2-1-0.4c-0.2-0.1-0.2,0-0.3,0.1c-0.8,0.7-1.4,1.4-2.1,2.1
			c-0.2,0.2-0.1,0.2,0.1,0.4c0.5,0.2,0.8,0.5,1.3,0.7c0.2,0.1,0.3,0.1,0.4-0.1c0.5-0.9,1.1-1.7,1.7-2.5C14.2,15,14.2,15,14.2,14.9z
			 M11.5,30.4c0,0.1,0,0.1,0,0.2c0.2,0.8,0.5,1.5,0.8,2.3c0.1,0.2,0.2,0.2,0.2,0.2c0.6,0.2,1.3,0.5,1.9,0.7c0.2,0.1,0.3,0.2,0.5,0.1
			c-0.3-0.8-0.5-1.5-0.8-2.3c0-0.1-0.1-0.1-0.2-0.2C13.3,31.1,12.4,30.8,11.5,30.4z M30.6,27.5c0.1-0.1,0.2-0.1,0.2-0.1
			c0.6-0.5,1.1-1.1,1.6-1.7c0.1-0.1,0.1-0.2,0.1-0.2c0-0.7-0.2-1.4-0.3-2c-0.6,0.5-1.2,0.9-1.8,1.3c-0.1,0.1-0.1,0.2-0.1,0.2
			C30.4,25.8,30.6,26.6,30.6,27.5z M14.3,18.4c0.2,0.1,0.2-0.1,0.2-0.2c0.3-1,0.8-1.9,1.2-2.7c0.1-0.2,0.1-0.2-0.2-0.3
			c-0.8-0.2-0.8-0.2-1.3,0.5l0,0c-0.5,0.7-1,1.4-1.4,2c-0.1,0.1-0.2,0.2,0,0.3C13.4,18.1,13.9,18.3,14.3,18.4z M27,17.4
			c0.1,0,0.1,0,0.2-0.1c0.3-0.2,0.7-0.3,1-0.5c0.2-0.1,0.2-0.2,0.1-0.4c-0.6-0.6-1.2-1.2-1.8-1.8c-0.6-0.5-0.6-0.5-1.4-0.2
			c0,0,0,0-0.1,0c-0.2,0.1-0.2,0.2-0.1,0.2c0.7,0.8,1.4,1.7,1.9,2.6C27,17.4,27,17.4,27,17.4z M20,11.2c-0.7,1.1-1.1,2.3-1.4,3.6
			C18.6,15,18.7,15,18.9,15c0.5,0,1.1,0,1.5,0c0.3,0,0.3-0.1,0.3-0.3c-0.2-0.7-0.2-1.3-0.4-2C20.2,12.2,20.1,11.7,20,11.2z
			 M26.4,17.7c-0.1-0.1-0.1-0.2-0.2-0.2c-0.5-0.8-1.1-1.4-1.6-2.2c-0.4-0.5-0.4-0.5-1.1-0.3c-0.2,0.1-0.2,0.2-0.1,0.2
			c0.5,0.9,0.9,1.8,1.4,2.8c0.1,0.2,0.2,0.2,0.2,0.2c0.4-0.2,0.8-0.2,1.1-0.4C26.3,17.7,26.4,17.7,26.4,17.7z M22.4,35.4
			c0-0.2,0-0.3,0-0.5c0-0.2-0.1-0.3-0.3-0.2c-0.8,0.2-1.7,0.2-2.5,0.2c-0.2,0-0.2,0.1-0.2,0.2c0.1,0.3,0.2,0.6,0.2,1
			c0,0.2,0.2,0.3,0.3,0.2c0.5-0.1,1.1-0.1,1.6-0.1C22.4,36.1,22.4,36.1,22.4,35.4z M32.2,18.9c-0.1-0.1-0.1-0.2-0.1-0.2
			c-0.4-0.7-0.8-1.3-1.4-1.9c-0.5-0.5-0.5-0.5-1-0.2c-0.1,0.1-0.2,0.1-0.2,0.2c-0.2,0.1-0.2,0.2-0.1,0.3c0.6,0.8,1.2,1.5,1.7,2.3
			c0.1,0.1,0.1,0.2,0.2,0.1C31.6,19.3,31.9,19.1,32.2,18.9C32.1,19,32.1,18.9,32.2,18.9z M19,36.3c0.2,0.1,0.2-0.1,0.2-0.2
			c0-0.1-0.1-0.2-0.1-0.2C19,35.6,19,35.2,18.9,35C18.7,34.8,18.3,35,18,35H18c-0.6-0.1-1.2-0.2-1.8-0.2c-0.1,0-0.2-0.1-0.2,0.1
			c0.2,0.4,0.3,0.8,0.5,1.1c0,0.1,0.1,0.1,0.2,0.1C17.4,36.1,18.2,36.2,19,36.3z M29.5,31.9C29.4,31.9,29.4,31.9,29.5,31.9
			c-1,0.6-2,1.1-3,1.6c-0.1,0-0.2,0.1-0.2,0.1c-0.2,0.5-0.2,0.9-0.4,1.4c0.2-0.1,0.3-0.2,0.4-0.2c0.8-0.4,1.5-0.9,2.3-1.4
			C29.2,33.1,29.4,32.6,29.5,31.9z M25.7,33.8c-0.9,0.3-1.7,0.5-2.6,0.7c-0.2,0-0.2,0.1-0.2,0.2c0,0.3,0,0.7,0,1
			c0,0.2,0.1,0.2,0.2,0.2c0.7-0.2,1.3-0.4,1.9-0.6c0.1,0,0.2-0.1,0.2-0.2C25.5,34.7,25.6,34.4,25.7,33.8z M9.1,16.2
			c-0.2,0-0.2,0.2-0.2,0.2c-0.6,0.8-1.1,1.7-1.4,2.5c-0.3,0.7-0.3,0.5,0.3,0.9C8,20,8,19.9,8.1,19.8C8.5,19,9,18.1,9.5,17.4
			c0.4-0.5,0.4-0.3-0.1-0.8C9.3,16.4,9.2,16.3,9.1,16.2z M26.9,13.4c-0.2,0.1-0.2,0.2-0.4,0.3s-0.2,0.2,0,0.3c0.7,0.6,1.4,1.2,2,1.9
			c0.5,0.6,0.5,0.6,1.2,0.1c0.2-0.2,0.2-0.2,0-0.4c-0.8-0.8-1.7-1.4-2.6-2C27,13.5,27,13.5,26.9,13.4z M32.4,26.6
			c-0.6,0.6-1.1,1.2-1.7,1.7c0,0.1,0,0.1,0,0.2c0,0.6-0.1,1.3-0.2,1.9c0.2,0,0.2-0.1,0.3-0.2c0.4-0.3,0.7-0.7,1.1-1.1
			c0.3-0.3,0.5-0.7,0.5-1.1C32.4,27.5,32.5,27.1,32.4,26.6z M12.4,14C12.4,14,12.3,14,12.4,14c-0.2-0.2-0.3-0.2-0.4-0.3
			c-0.2-0.2-0.3-0.2-0.5,0c-0.6,0.5-1.1,1-1.7,1.5c-0.5,0.6-0.5,0.4,0,1c0.2,0.2,0.3,0.2,0.5,0c0.6-0.7,1.2-1.4,2-2
			C12.3,14.1,12.3,14.1,12.4,14z M32.5,22.3c0.3-0.2,0.5-0.5,0.7-0.8c0.1-0.1,0.1-0.2,0-0.3c-0.2-0.5-0.4-1.1-0.7-1.7
			c-0.1-0.2-0.2-0.2-0.3-0.1c-0.2,0.2-0.4,0.3-0.6,0.4c-0.2,0.1-0.2,0.2-0.1,0.3c0.3,0.5,0.5,1.1,0.8,1.7
			C32.3,22,32.3,22.1,32.5,22.3z M20.8,11.9c-0.1,0.1,0,0.1,0,0.2c0.2,0.8,0.3,1.5,0.4,2.3c0.1,0.5,0.1,0.5,0.6,0.5
			c0.2,0,0.4-0.1,0.5-0.1c0.2,0,0.2-0.1,0.2-0.3c-0.5-0.8-1-1.6-1.5-2.3C20.9,12.1,20.8,11.9,20.8,11.9z M12.8,33.8
			c0,0.2,0.2,0.4,0.2,0.5c-0.2,0.2,0,0.2,0.1,0.2c0.5,0.3,1.1,0.6,1.7,0.8c0.3,0.1,0.6,0.2,1,0.3c-0.2-0.4-0.3-0.8-0.5-1.1
			c0-0.1-0.1-0.1-0.2-0.2C14.4,34.3,13.7,34,12.8,33.8z M18.9,12.1c-0.3,0.2-0.5,0.5-0.7,0.7c-0.5,0.6-0.9,1.2-1.3,1.9
			c-0.1,0.2-0.1,0.2,0.2,0.2c0.2,0,0.5,0,0.8,0.1c0.2,0,0.2-0.1,0.3-0.2c0.1-0.4,0.2-0.8,0.3-1.2C18.6,13.1,18.7,12.5,18.9,12.1z
			 M16.1,11.4c-0.3,0-0.5,0.1-0.8,0.2c-1.1,0.4-2.1,0.8-3,1.4c-0.1,0.1-0.2,0.1-0.2,0.2c0.1,0.2,0.6,0.4,0.8,0.3
			c0.8-0.6,1.7-1.2,2.5-1.7C15.8,11.7,15.9,11.6,16.1,11.4z M7.1,22.9c0.1-0.1,0.1-0.2,0.1-0.2c0.1-0.5,0.2-1.1,0.4-1.7
			c0.2-0.5,0.2-0.5-0.4-0.9C7,20,6.9,20,6.9,20.2c-0.2,0.5-0.2,1.1-0.4,1.6C6.5,22.4,6.7,22.7,7.1,22.9z M32.9,24.7
			c0.7-0.7,0.8-1.7,0.5-2.5c-0.2,0.2-0.5,0.5-0.7,0.7c-0.1,0.1-0.1,0.2-0.1,0.2C32.8,23.6,32.8,24.2,32.9,24.7z M23.1,11.5
			c0.3,0.2,0.5,0.4,0.8,0.5c0.6,0.5,1.2,0.9,1.8,1.4c0.2,0.2,0.5,0.1,0.6-0.2S26.1,13,26,12.9c-0.8-0.5-1.8-1-2.7-1.4
			C23.2,11.5,23.2,11.4,23.1,11.5z M21.7,12.2c0,0.1,0.1,0.2,0.1,0.2c0.4,0.6,0.8,1.2,1.1,1.8c0.3,0.5,0.2,0.4,0.8,0.3
			c0.2-0.1,0.2-0.1,0.1-0.3c-0.6-0.7-1.2-1.4-1.9-2C21.8,12.2,21.7,12.2,21.7,12.2z M27.5,12.9c-0.1,0-0.2,0.1-0.2,0.2
			c-0.1,0.2,0.1,0.2,0.2,0.2c0.7,0.5,1.3,0.9,1.9,1.4c0.2,0.2,0.5,0.5,0.8,0.7c0.1,0.1,0.2,0.2,0.2,0.1s0.1-0.2,0-0.2
			s-0.1-0.1-0.2-0.2c-0.8-0.8-1.6-1.4-2.5-2C27.6,12.9,27.6,12.9,27.5,12.9z M6.6,23.3c-0.1,0.1-0.1,0.2-0.1,0.2
			c0,0.7,0.1,1.4,0.2,2c0,0.2,0.2,0.3,0.4,0.5c-0.1-0.7-0.1-1.3,0-1.9C7,23.8,6.9,23.5,6.6,23.3z M30.2,32c0.5-0.5,1.1-1.1,1.4-1.7
			c-0.4,0.2-0.7,0.5-1,0.8C30.2,31.3,30.2,31.7,30.2,32z M33.5,25.1c-0.2,0.3-0.5,0.5-0.5,0.9c0,0.4,0,0.8,0,1.3
			C33.3,26.7,33.4,25.9,33.5,25.1z M12.2,33.9c-0.2-0.8-0.8-0.8-1.3-1.1C11.3,33.3,11.7,33.6,12.2,33.9z M25.3,11.9
			c0.5,0.3,0.9,0.5,1.4,0.8c0.1,0.1,0.2,0,0.2-0.1c0.1-0.1,0-0.2-0.1-0.2c-0.2-0.1-0.4-0.2-0.5-0.3C26,12.1,25.7,11.9,25.3,11.9z
			 M31.7,17.2c0.1-0.1,0.1-0.2,0-0.2c-0.2-0.4-0.5-0.8-0.8-1.1c-0.1-0.1-0.1-0.2-0.2-0.1c-0.1,0.1,0,0.2,0,0.2
			C31,16.4,31.4,16.8,31.7,17.2z"/>
	</g>
	<g>
		<g>
			<ellipse class="st1" cx="34.8" cy="31.3" rx="9.2" ry="1.5"/>
			<g>
				<g>
					<rect x="27.2" y="19.5" class="st2" width="15.1" height="10.4"/>
					<path class="st3" d="M27.2,28.5c1.2,0.5,4.7,0.7,7.5,0.7c2.8,0,6.3-0.2,7.6-0.7c0.3,0.1,0.4,0.3,0.4,0.6v1.5
						c0,1.2-4.5,1.7-8,1.7s-8-0.6-8-1.7v-1.5C26.7,28.8,26.9,28.6,27.2,28.5z"/>
					<path class="st3" d="M34.7,28.4c3.5,0,8-0.3,8-1.1v-1.8c0-0.2-0.4-0.4-0.8-0.4H27.6c-0.5,0-0.8,0.2-0.8,0.4v1.8
						C26.7,28,31.2,28.4,34.7,28.4z"/>
					<path class="st3" d="M34.7,17.1c3.5,0,8,0.6,8,1.7v1.5c0,0.3-0.2,0.5-0.5,0.6c-1.2-0.5-4.7-0.7-7.5-0.7c-2.8,0-6.3,0.2-7.6,0.7
						c-0.3-0.1-0.4-0.3-0.4-0.6v-1.5C26.7,17.7,31.3,17.1,34.7,17.1z"/>
					<path class="st3" d="M34.7,21.1c-3.5,0-8,0.3-8,1.1V24c0,0.2,0.4,0.4,0.8,0.4h14.3c0.5,0,0.8-0.2,0.8-0.4v-1.8
						C42.7,21.4,38.2,21.1,34.7,21.1z"/>
					<path class="st1" d="M29.9,17.5c-1.3,0-1.3,14.5,0,14.5c-1.8-0.3-3.2-0.7-3.2-1.4v-1.5c0-0.3,0.2-0.5,0.5-0.6v-0.8
						c-0.3-0.1-0.5-0.2-0.5-0.4v-1.8c0-0.2,0.2-0.3,0.5-0.4v-0.7c-0.3-0.1-0.5-0.2-0.5-0.4v-1.8c0-0.1,0.2-0.3,0.5-0.4V21
						c0,0,0,0,0,0c-0.3-0.1-0.4-0.3-0.4-0.6v-1.5C26.7,18.2,28.1,17.7,29.9,17.5z"/>
					<path class="st1" d="M39.6,17.5c1.3,0,1.3,14.5,0,14.5c1.8-0.3,3.2-0.7,3.2-1.4v-1.5c0-0.3-0.2-0.5-0.5-0.6v-0.8
						c0.3-0.1,0.5-0.2,0.5-0.4v-1.8c0-0.2-0.2-0.3-0.5-0.4v-0.7c0.3-0.1,0.5-0.2,0.5-0.4v-1.8c0-0.1-0.2-0.3-0.5-0.4V21c0,0,0,0,0,0
						c0.3-0.1,0.4-0.3,0.4-0.6v-1.5C42.7,18.2,41.4,17.7,39.6,17.5z"/>
				</g>
			</g>
		</g>
	</g>
	<rect x="7.1" y="30.9" width="33.5" height="8.9"/>
	<g>
		<path class="st4" d="M10.8,38.9c-1.1,0-1.8-0.2-2.5-0.9L9,37.3c0.5,0.5,1.1,0.7,1.8,0.7c0.9,0,1.5-0.4,1.5-1.1
			c0-0.3-0.1-0.6-0.3-0.7c-0.2-0.2-0.4-0.2-0.8-0.3l-0.8-0.1c-0.6-0.1-1-0.3-1.3-0.6c-0.3-0.3-0.5-0.8-0.5-1.4
			c0-1.2,0.9-2.1,2.4-2.1c0.9,0,1.6,0.2,2.2,0.8l-0.7,0.7c-0.4-0.4-1-0.5-1.6-0.5c-0.8,0-1.3,0.5-1.3,1.1c0,0.3,0.1,0.5,0.3,0.7
			c0.2,0.2,0.4,0.3,0.8,0.3l0.8,0.1c0.6,0.1,1,0.2,1.3,0.5c0.4,0.3,0.6,0.8,0.6,1.5C13.3,38.1,12.2,38.9,10.8,38.9z"/>
		<path class="st4" d="M15.4,36.6c0,0.9,0.4,1.4,1.3,1.4c0.6,0,0.9-0.2,1.2-0.5l0.6,0.6c-0.5,0.5-1,0.8-1.9,0.8
			c-1.3,0-2.3-0.7-2.3-2.6c0-1.6,0.8-2.6,2.1-2.6c1.4,0,2.1,1,2.1,2.4v0.4H15.4z M17.5,35.2c-0.2-0.4-0.5-0.6-1-0.6
			c-0.5,0-0.8,0.3-1,0.6c-0.1,0.2-0.1,0.4-0.1,0.7h2.3C17.6,35.6,17.6,35.4,17.5,35.2z"/>
		<path class="st4" d="M22.8,35c-0.2-0.2-0.4-0.3-0.8-0.3c-0.5,0-1,0.4-1,1.1v3.1h-1v-5h1v0.5c0.3-0.4,0.8-0.6,1.3-0.6
			c0.5,0,0.9,0.1,1.2,0.5L22.8,35z"/>
		<path class="st4" d="M26.3,38.8h-0.8l-1.9-5h1.1l1.2,3.6l1.2-3.6h1.1L26.3,38.8z"/>
		<path class="st4" d="M30.4,38.8c-1,0-1.4-0.6-1.4-1.4v-5.7h1v5.6c0,0.4,0.1,0.6,0.5,0.6H31v0.9H30.4z"/>
		<path class="st4" d="M32.8,36.6c0,0.9,0.4,1.4,1.3,1.4c0.6,0,0.9-0.2,1.2-0.5l0.6,0.6c-0.5,0.5-1,0.8-1.9,0.8
			c-1.3,0-2.3-0.7-2.3-2.6c0-1.6,0.8-2.6,2.1-2.6c1.4,0,2.1,1,2.1,2.4v0.4H32.8z M34.9,35.2c-0.2-0.4-0.5-0.6-1-0.6
			c-0.5,0-0.8,0.3-1,0.6c-0.1,0.2-0.1,0.4-0.1,0.7h2.3C35,35.6,35,35.4,34.9,35.2z"/>
		<path class="st4" d="M38.9,38.8c-0.9,0-1.4-0.7-1.4-1.4v-2.9h-0.6v-0.8h0.6v-1.4h1v1.4h1v0.8h-1v2.8c0,0.4,0.2,0.6,0.6,0.6h0.4
			v0.9H38.9z"/>
	</g>
</g>
</svg>
